<?xml version="1.0" encoding="UTF-8" standalone="no"?>
<svg
   id="Layer_1"
   data-name="Layer 1"
   viewBox="0 0 251.29 270.68"
   version="1.1"
   sodipodi:docname="treasures-icon.svg"
   inkscape:version="1.4 (e7c3feb100, 2024-10-09)"
   xmlns:inkscape="http://www.inkscape.org/namespaces/inkscape"
   xmlns:sodipodi="http://sodipodi.sourceforge.net/DTD/sodipodi-0.dtd"
   xmlns="http://www.w3.org/2000/svg"
   xmlns:svg="http://www.w3.org/2000/svg">
  <sodipodi:namedview
     id="namedview11"
     pagecolor="#ffffff"
     bordercolor="#000000"
     borderopacity="0.25"
     inkscape:showpageshadow="2"
     inkscape:pageopacity="0.0"
     inkscape:pagecheckerboard="0"
     inkscape:deskcolor="#d1d1d1"
     inkscape:zoom="6.1031478"
     inkscape:cx="197.84872"
     inkscape:cy="153.36348"
     inkscape:window-width="3440"
     inkscape:window-height="1389"
     inkscape:window-x="0"
     inkscape:window-y="32"
     inkscape:window-maximized="1"
     inkscape:current-layer="Layer_1" />
  <defs
     id="defs1">
    <style
       id="style1">.cls-1{fill:#034e09;}.cls-2{fill:#fff;}.cls-3{fill:#67cc6c;}.cls-4{fill:#4ace3d;}.cls-5{fill:#24a719;}</style>
  </defs>
  <path
     class="cls-1"
     d="M228.18,143.19l.19-12.55a30.89,30.89,0,0,0-1.71-12.46c-3.93-9.92-13.33-16.07-24.55-16.07H147.46l2.8-4,2.58-3.75c8.21-11.85,16-23,16.06-37.65a42.88,42.88,0,0,0-12.12-30.34,43.69,43.69,0,0,0-62.66,0A42.83,42.83,0,0,0,82,56.67c.09,14.6,7.85,25.8,16.06,37.65l2.58,3.75,2.79,4H49.51c-11.21,0-20.62,6.15-24.56,16.07a31.25,31.25,0,0,0-1.71,12.45l.18,12.56h-.9A4.81,4.81,0,0,0,17.71,148v16.69a4.81,4.81,0,0,0,4.81,4.81h1.3l0,2,4.44,65.21c0,.44.05.91.06,1.39.24,5.83.78,19.47,16.23,19.47H207c15.45,0,16-13.64,16.22-19.46,0-.48,0-.95.06-1.32l4.44-65.29,0-2h1a4.81,4.81,0,0,0,4.81-4.81V148a4.81,4.81,0,0,0-4.81-4.81ZM125.6,40.51a15.22,15.22,0,1,1-15.22,15.21A15.23,15.23,0,0,1,125.6,40.51Z"
     id="path1" />
  <path
     class="cls-2"
     d="M125.45,18.09c-21.11,0-38.61,16.52-38.45,37.63.08,12.18,6.32,21.54,15.14,34s19.16,27.81,23.31,27.63c4.15.18,14.48-15.15,23.31-27.63s15.06-21.83,15.14-34C164.06,34.61,146.56,18.13,125.45,18.09Zm.15,57.85a20.22,20.22,0,1,1,20.22-20.22A20.22,20.22,0,0,1,125.6,75.94Z"
     id="path2"
     style="fill:#eae9dd;fill-opacity:1" />
  <polygon
     class="cls-3"
     points="52.34 229.52 32.82 229.52 28.85 171.32 28.85 171 49.33 171 52.34 229.52"
     id="polygon2" />
  <path
     class="cls-4"
     d="M111.57,221.16a3.23,3.23,0,0,0,.78,2.56,3.26,3.26,0,0,0,2.44,1.1h21.75a3.26,3.26,0,0,0,2.44-1.1,3.23,3.23,0,0,0,.78-2.56l-1.78-14a18.74,18.74,0,0,0,5.11-7.43h51.1l-1.72,29.84H58.85l-1.54-29.84H108a18.55,18.55,0,0,0,5.35,7.65Z"
     id="path3"
     style="fill:#3d9f35;fill-opacity:1" />
  <path
     class="cls-4"
     d="M194.56,193.18H144.3v-.11a18.77,18.77,0,0,0-37.54,0v.11H57L55.84,171h140Z"
     id="path4"
     style="fill:#3d9f35;fill-opacity:1" />
  <path
     class="cls-3"
     d="M33.26,236H218.35l0,.45c-.32,6.12.24,16.12-11.29,16.12H44.58c-11.52,0-11-10-11.29-16.12Z"
     id="path5" />
  <polygon
     class="cls-3"
     points="202.34 171 222.76 171 222.76 171.32 218.79 229.52 198.97 229.52 202.34 171"
     id="polygon5" />
  <path
     class="cls-3"
     d="M28.24,130.47A25.89,25.89,0,0,1,29.6,120c3.13-7.88,10.7-12.91,19.91-12.91h6.28c-5.76,10.89-5.86,20.66-6,32.47,0,.69,0,1.4,0,2.11H28.4Z"
     id="path6" />
  <path
     class="cls-4"
     d="M121.82,123.56H57.19a41.59,41.59,0,0,1,6.11-16.45H106C113.17,116.88,117.6,121.85,121.82,123.56Z"
     id="path7"
     style="fill:#3d9f35;fill-opacity:1" />
  <path
     class="cls-4"
     d="M194,123.56H129.08c4.22-1.71,8.65-6.68,15.8-16.45H188A52.53,52.53,0,0,1,194,123.56Z"
     id="path8"
     style="fill:#3d9f35;fill-opacity:1" />
  <path
     class="cls-4"
     d="M194.69,141.69H56.3c0-.69,0-1.37,0-2,0-3.4.06-6.56.23-9.59H194.78A97.06,97.06,0,0,1,194.69,141.69Z"
     id="path9"
     style="fill:#3d9f35;fill-opacity:1" />
  <path
     class="cls-3"
     d="M195.34,107.11h6.77c9.21,0,16.78,5,19.9,12.91a25.72,25.72,0,0,1,1.37,10.45l-.17,11.22h-22C202,127.16,200.47,117.59,195.34,107.11Z"
     id="path10" />
  <rect
     class="cls-3"
     x="22.71"
     y="148.19"
     width="205.88"
     height="16.31"
     id="rect10" />
  <path
     class="cls-5"
     d="M118.48,218.32h14.37l-1.55-12.2a3.27,3.27,0,0,1,1.34-3.06,12.22,12.22,0,0,0,4.86-7.33h0a11.83,11.83,0,0,0,.3-2.65,12.27,12.27,0,0,0-24.54,0,12.44,12.44,0,0,0,.29,2.65,12.24,12.24,0,0,0,5.06,7.49A3.24,3.24,0,0,1,120,206.3Z"
     id="path11"
     style="fill:#1d7721;fill-opacity:1.0" />
</svg>
